<?xml version="1.0" encoding="UTF-8" standalone="no"?>
<!DOCTYPE svg PUBLIC "-//W3C//DTD SVG 1.1//EN" "http://www.w3.org/Graphics/SVG/1.1/DTD/svg11.dtd">
<svg width="100%" height="100%" viewBox="0 0 509 127" version="1.1" xmlns="http://www.w3.org/2000/svg" xmlns:xlink="http://www.w3.org/1999/xlink" xml:space="preserve" xmlns:serif="http://www.serif.com/" style="fill-rule:evenodd;clip-rule:evenodd;stroke-linejoin:round;stroke-miterlimit:2;">
    <g transform="matrix(1,0,0,1,28.4878,13.608)">
        <path d="M0,68.041C12.419,68.041 22.544,61.02 22.544,49.249C22.544,28.62 -1.08,14.796 -9.854,14.364C-11.07,14.256 -14.174,9.504 -14.174,8.64C-14.444,1.62 20.519,-7.452 34.019,-6.48C36.448,-6.265 41.443,-2.16 41.443,-0.864C41.443,4.32 31.184,11.124 27.809,11.124C26.864,11.124 26.594,10.692 26.594,9.936C26.594,8.964 31.319,4.428 31.319,3.24C31.319,0.647 6.479,7.668 0.675,11.664C6.345,14.148 33.344,28.836 33.344,54.324C33.344,68.473 19.979,75.493 7.02,75.493C-10.125,75.493 -20.789,62.965 -20.789,53.137C-20.789,48.276 -17.279,41.257 -11.34,41.257C-7.56,41.257 -4.725,42.553 -3.915,44.929C-6.75,47.196 -11.475,53.137 -11.475,58.429C-11.475,62.641 -8.1,68.041 0,68.041" style="fill:rgb(0,105,181);fill-rule:nonzero;"/>
    </g>
    <g transform="matrix(1,0,0,1,80.4609,57.889)">
        <path d="M0,-0.865C4.725,-0.865 8.775,-13.069 8.775,-23.005C8.775,-27.541 7.83,-28.081 7.155,-28.081C6.615,-28.081 5.94,-27.649 5.13,-26.136C1.89,-20.304 -1.89,-11.449 -3.375,-3.564C-3.375,-3.564 -2.7,-0.865 0,-0.865M7.155,-33.913C12.285,-33.913 18.225,-30.673 18.225,-20.737C18.225,-6.913 13.5,5.615 2.835,5.615C-2.97,5.615 -4.995,1.079 -4.995,1.079C-4.995,1.079 -7.424,6.804 -7.424,15.552C-7.424,20.628 -4.995,24.407 1.89,24.407C12.285,24.407 20.654,10.907 20.654,3.78C20.654,3.78 20.654,2.591 22.544,2.591C24.704,2.591 26.459,4.751 26.459,7.776C26.459,17.172 19.169,33.048 4.185,33.048C-6.209,33.048 -15.929,25.38 -15.929,11.88C-15.929,-6.157 -4.725,-33.913 7.155,-33.913" style="fill:rgb(0,105,181);fill-rule:nonzero;"/>
    </g>
    <g transform="matrix(1,0,0,1,103.411,16.9561)">
        <path d="M0,55.729C1.215,38.989 7.425,4.104 12.149,-14.365C12.419,-15.229 13.5,-15.336 14.174,-15.336C17.415,-15.336 23.219,-12.42 22.814,-10.476C17.955,12.312 13.095,36.936 11.34,60.481C11.07,63.397 10.8,66.313 10.665,69.229C9.18,71.065 0.54,67.285 -0.135,65.449C-0.945,63.937 -0.27,59.185 0,55.729" style="fill:rgb(0,105,181);fill-rule:nonzero;"/>
    </g>
    <g transform="matrix(1,0,0,1,146.61,65.4478)">
        <path d="M0,-16.955C-4.185,-7.451 -10.665,8.641 -10.53,18.793C-10.53,18.793 -12.285,20.413 -15.12,20.413C-21.194,20.413 -24.164,15.23 -24.164,6.373C-24.164,-12.311 -17.819,-38.34 -14.715,-38.34C-10.53,-38.34 -6.21,-36.18 -6.615,-34.559C-9.315,-23.867 -13.5,-10.043 -13.5,-3.023L-12.959,-3.023C-7.83,-15.012 -3.105,-26.136 1.08,-34.128C1.62,-35.1 2.834,-35.1 4.05,-35.1C7.694,-35.1 13.094,-33.695 12.689,-30.239C11.879,-22.571 9.719,-10.583 9.449,-2.052L9.989,-2.052C15.119,-14.039 19.574,-27.863 27.134,-39.528C27.674,-40.5 28.889,-40.5 30.104,-40.5C33.748,-40.5 39.958,-38.556 39.553,-35.1C38.473,-24.084 31.318,-7.775 31.318,4.321C31.318,9.829 33.073,12.529 36.854,12.529C41.309,12.529 44.008,6.805 45.088,3.997C45.088,3.997 48.058,4.213 48.058,6.913C48.058,11.557 42.253,19.873 32.804,19.873C23.624,19.873 21.059,12.097 21.059,3.349C21.059,-1.295 23.759,-12.527 25.109,-18.035L23.488,-18.035C17.954,-8.424 11.609,11.773 11.744,21.925C11.744,21.925 9.989,23.545 7.154,23.545C1.08,23.545 0,18.901 -0.135,10.693C-0.27,1.729 0.27,-8.424 1.215,-16.955L0,-16.955Z" style="fill:rgb(26,26,26);fill-rule:nonzero;"/>
    </g>
    <g transform="matrix(1,0,0,1,205.875,32.2921)">
        <path d="M0,45.685C7.964,45.685 15.254,19.873 15.254,15.984C15.254,15.984 10.935,15.336 9.044,13.608C11.879,10.476 13.634,6.696 13.634,2.808C13.634,1.836 13.634,-0.756 11.069,-0.756C1.215,-0.756 -4.86,25.056 -4.86,36.397C-4.86,43.092 -3.51,45.685 0,45.685M15.659,45.145C13.499,48.924 7.964,53.029 1.35,53.029C-8.64,53.029 -16.2,44.821 -16.2,31.644C-16.2,12.096 -4.995,-7.344 11.204,-7.344C20.384,-7.344 24.434,-2.592 24.434,0.648C24.434,1.188 24.299,1.836 24.299,1.836C25.514,2.16 30.778,2.268 29.969,4.752C25.783,16.848 22.409,28.081 22.409,36.613C22.409,41.581 23.488,44.928 28.078,44.928C35.099,44.928 36.988,37.909 37.934,31.428C37.934,31.428 41.848,31.104 41.848,34.344C41.848,40.069 36.313,52.273 26.054,52.273C19.844,52.273 16.604,47.737 16.334,45.145L15.659,45.145Z" style="fill:rgb(26,26,26);fill-rule:nonzero;"/>
    </g>
    <g transform="matrix(1,0,0,1,265.813,64.6917)">
        <path d="M0,-17.279C-5.534,-7.668 -12.689,10.693 -12.554,20.845C-12.554,20.845 -14.309,22.465 -17.144,22.465C-23.219,22.465 -24.839,16.633 -24.839,8.425C-24.839,-14.58 -21.329,-36.288 -13.094,-36.288C-11.474,-36.288 -8.369,-36.072 -8.774,-33.372C-10.395,-23.004 -14.174,-12.96 -14.174,-2.267L-13.634,-2.267C-8.504,-14.256 -3.374,-27.107 4.186,-38.772C4.726,-39.744 5.94,-39.744 7.155,-39.744C10.8,-39.744 17.01,-37.8 16.604,-34.343C15.524,-23.328 8.37,-9.287 8.37,5.077C8.37,10.585 10.125,13.285 13.905,13.285C18.359,13.285 21.06,7.561 22.14,4.753C22.14,4.753 25.109,4.969 25.109,7.669C25.109,12.313 19.305,20.629 9.855,20.629C0.676,20.629 -1.89,12.853 -1.89,4.105C-1.89,-0.539 0.271,-11.771 1.62,-17.279L0,-17.279Z" style="fill:rgb(26,26,26);fill-rule:nonzero;"/>
    </g>
    <g transform="matrix(1,0,0,1,326.425,35.641)">
        <path d="M0,21.383C5.4,4.211 21.194,-35.641 26.999,-35.641C29.159,-35.641 34.019,-34.67 35.369,-33.157C32.669,-1.405 34.694,29.375 40.363,53.784C40.634,54.972 33.344,55.188 28.754,52.812C24.704,50.76 22.274,5.831 23.76,-17.173C12.689,3.887 2.7,27.648 2.295,45.684C1.755,46.655 0,46.655 -0.944,46.655C-4.185,46.655 -8.234,45.144 -9.044,42.228C-11.609,21.816 -13.634,8.207 -11.475,-12.745L-12.015,-13.285C-17.414,-6.049 -27.674,17.171 -31.993,42.552C-31.993,44.712 -28.349,42.552 -28.889,45.144C-29.429,48.06 -31.724,51.192 -33.208,54.108C-34.693,57.024 -43.333,53.028 -44.143,51.948C-43.873,28.835 -25.514,-22.357 -8.64,-31.754C-5.534,-31.321 -3.239,-30.025 -1.619,-27.865C-3.779,-14.689 -2.295,13.715 -0.944,21.383L0,21.383Z" style="fill:rgb(26,26,26);fill-rule:nonzero;"/>
    </g>
    <g transform="matrix(1,0,0,1,384.88,32.2921)">
        <path d="M0,45.685C7.965,45.685 15.255,19.873 15.255,15.984C15.255,15.984 10.935,15.336 9.045,13.608C11.88,10.476 13.635,6.696 13.635,2.808C13.635,1.836 13.635,-0.756 11.069,-0.756C1.215,-0.756 -4.859,25.056 -4.859,36.397C-4.859,43.092 -3.51,45.685 0,45.685M15.659,45.145C13.5,48.924 7.965,53.029 1.351,53.029C-8.64,53.029 -16.199,44.821 -16.199,31.644C-16.199,12.096 -4.995,-7.344 11.205,-7.344C20.385,-7.344 24.435,-2.592 24.435,0.648C24.435,1.188 24.299,1.836 24.299,1.836C25.514,2.16 30.779,2.268 29.969,4.752C25.784,16.848 22.409,28.081 22.409,36.613C22.409,41.581 23.489,44.928 28.079,44.928C35.099,44.928 36.988,37.909 37.934,31.428C37.934,31.428 41.849,31.104 41.849,34.344C41.849,40.069 36.313,52.273 26.054,52.273C19.845,52.273 16.604,47.737 16.335,45.145L15.659,45.145Z" style="fill:rgb(26,26,26);fill-rule:nonzero;"/>
    </g>
    <g transform="matrix(1,0,0,1,433.749,9.1799)">
        <path d="M0,70.849C7.02,70.849 17.685,45.037 17.685,40.176C16.335,39.96 14.984,39.636 13.635,38.016C14.715,35.1 17.01,30.025 17.01,26.46C17.01,24.732 16.604,22.68 14.58,22.68C4.86,22.68 -2.97,48.493 -2.97,63.721C-2.97,65.989 -2.699,70.849 0,70.849M16.064,67.393C14.31,71.281 9.18,78.625 3.105,78.625C-9.044,78.625 -13.094,66.529 -13.094,57.241C-13.094,42.012 -4.859,17.28 13.364,17.28C17.55,17.28 20.925,19.872 20.925,19.872C22.814,11.448 24.704,-1.404 25.379,-5.616C25.649,-7.669 26.999,-7.776 27.539,-7.776C32.264,-7.776 37.124,-6.373 36.584,-4.104C34.559,4.536 24.975,57.565 24.975,62.857C24.975,66.421 26.594,68.04 29.429,68.04C33.884,68.04 36.719,61.021 37.664,54.54C37.664,54.54 41.578,54.216 41.578,57.456C41.578,63.181 36.044,75.385 25.784,75.385C19.979,75.385 16.47,71.713 16.47,67.393L16.064,67.393Z" style="fill:rgb(26,26,26);fill-rule:nonzero;"/>
    </g>
    <g transform="matrix(1,0,0,1,482.214,57.889)">
        <path d="M0,-0.865C4.725,-0.865 8.774,-13.069 8.774,-23.005C8.774,-27.541 7.829,-28.081 7.154,-28.081C6.614,-28.081 5.939,-27.649 5.13,-26.136C1.89,-20.304 -1.891,-11.449 -3.375,-3.564C-3.375,-3.564 -2.7,-0.865 0,-0.865M7.154,-33.913C12.284,-33.913 18.224,-30.673 18.224,-20.737C18.224,-6.913 13.499,5.615 2.835,5.615C-2.97,5.615 -4.995,1.079 -4.995,1.079C-4.995,1.079 -7.425,6.804 -7.425,15.552C-7.425,20.628 -4.995,24.407 1.89,24.407C12.284,24.407 20.654,10.907 20.654,3.78C20.654,3.78 20.654,2.591 22.544,2.591C24.704,2.591 26.459,4.751 26.459,7.776C26.459,17.172 19.169,33.048 4.185,33.048C-6.21,33.048 -15.93,25.38 -15.93,11.88C-15.93,-6.157 -4.726,-33.913 7.154,-33.913" style="fill:rgb(26,26,26);fill-rule:nonzero;"/>
    </g>
    <g transform="matrix(1,0,0,1,267.901,115.089)">
        <path d="M0,-2.015C-0.32,-2.015 -0.56,-2.207 -0.56,-2.463C-0.56,-2.751 0,-4.223 0,-5.023C0,-5.855 -0.36,-6.271 -1.16,-6.271C-3.56,-6.271 -6.479,-2.944 -6.479,0.768C-6.479,2.656 -5.279,3.904 -3.52,3.904C-1.56,3.904 0.12,3.008 0.8,2.753C0.88,2.72 1,2.688 1.12,2.688C1.359,2.688 1.479,2.816 1.64,3.072L2.319,4.224C2.319,4.224 2.439,4.416 2.439,4.608C2.439,4.896 2.279,5.12 2.04,5.28C0.52,6.208 -1.04,7.072 -3.039,7.072C-5.039,7.072 -7.278,6.08 -8.599,5.024C-9.559,4.256 -10.599,2.625 -10.599,0.864C-10.599,-4.383 -6.759,-9.087 -2.159,-9.087C-0.44,-9.087 4.159,-7.199 4.159,-5.408C4.159,-4.703 3.76,-3.391 3.199,-2.528C3.039,-2.272 2.56,-2.015 2.159,-2.015L0,-2.015Z" style="fill:rgb(26,26,26);fill-rule:nonzero;"/>
    </g>
    <g transform="matrix(1,0,0,1,284.581,122.064)">
        <path d="M0,-15.998C0.32,-15.998 0.601,-15.838 0.681,-15.55C0.8,-14.878 0.88,-13.759 0.92,-12.894C0.92,-12.574 0.601,-12.286 0.2,-12.223C-1.159,-12.03 -3.119,-11.582 -4.559,-11.038C-4.919,-10.91 -5.239,-10.591 -5.358,-10.207C-6.238,-7.391 -7.318,-2.495 -7.719,-0.447C-7.798,-0.159 -8.078,0.032 -8.438,0.032C-8.998,0.032 -10.358,-0.287 -10.998,-0.512C-11.317,-0.607 -11.518,-0.895 -11.518,-1.184C-11.518,-1.375 -11.438,-1.695 -11.438,-1.695L-8.559,-15.55C-8.479,-15.838 -8.198,-16.03 -7.838,-16.03C-7.559,-16.03 -5.919,-15.646 -5.438,-15.519C-5.079,-15.422 -4.799,-15.166 -4.799,-14.847C-4.799,-14.622 -4.839,-14.206 -4.839,-13.918C-4.839,-13.727 -4.799,-13.63 -4.639,-13.63C-4.559,-13.63 -4.479,-13.662 -4.359,-13.759C-3.559,-14.462 -1.399,-15.998 0,-15.998" style="fill:rgb(26,26,26);fill-rule:nonzero;"/>
    </g>
    <g transform="matrix(1,0,0,1,290.663,115.409)">
        <path d="M0,-2.655C0,-2.303 0.479,-2.303 0.88,-2.303C4.239,-2.303 5.639,-3.967 5.639,-5.247C5.639,-6.047 5.278,-6.783 4.199,-6.783C2.399,-6.783 0,-3.743 0,-2.655M3.519,-9.407C5.278,-9.407 8.238,-7.967 9.118,-6.783C9.558,-6.175 9.718,-5.439 9.718,-4.959C9.718,-2.911 7.398,0.033 1.999,0.033C1.239,0.033 0.56,-0.031 -0.04,-0.128C-0.04,-0.128 -0.36,-0.191 -0.44,-0.191C-0.681,-0.191 -0.8,-0 -0.8,0.257C-0.8,2.113 -0.08,3.584 2.079,3.584C3.519,3.584 4.879,3.008 6.278,2.433C6.278,2.433 6.438,2.368 6.559,2.368C6.799,2.368 6.919,2.464 7.078,2.689C7.278,3.008 7.918,4.065 7.918,4.288C7.918,4.609 7.719,4.832 7.479,4.992C5.999,5.888 4.359,6.752 2.479,6.752C0.8,6.752 -1.44,5.92 -3.04,4.737C-4,4.032 -4.88,2.529 -4.88,-0.095C-4.88,-4.415 -1.2,-9.407 3.519,-9.407" style="fill:rgb(26,26,26);fill-rule:nonzero;"/>
    </g>
    <g transform="matrix(1,0,0,1,312.341,112.626)">
        <path d="M0,2.815C0.479,0.544 1.279,-2.529 1.279,-2.624C1.279,-2.913 1.04,-3.136 0.72,-3.232C-0.2,-3.52 -0.96,-3.712 -1.4,-3.712C-5.039,-3.712 -6.799,1.567 -6.799,4.415C-6.799,5.503 -6.52,6.335 -6.079,6.335C-4.76,6.335 -2.439,4.96 -0.64,3.647C-0.2,3.327 -0.08,3.135 0,2.815M-0.04,8.287L-0.12,6.591C-0.12,6.399 -0.2,6.303 -0.28,6.303C-0.36,6.303 -0.4,6.335 -0.521,6.463C-2.12,8.287 -3.96,9.535 -5.159,9.535C-8.039,9.535 -10.719,6.399 -10.719,3.903C-10.719,-1.216 -7.719,-6.72 -2.399,-6.72C-0.92,-6.72 2.479,-5.728 5.398,-4.128C5.679,-3.968 5.839,-3.712 5.839,-3.424C5.839,-3.296 5.759,-3.073 5.759,-3.073C4.359,1.12 3.64,6.463 3.56,9.023C3.52,9.279 3.239,9.502 2.919,9.502C2.52,9.502 1.08,9.183 0.68,9.055C0.24,8.926 -0.04,8.607 -0.04,8.287" style="fill:rgb(26,26,26);fill-rule:nonzero;"/>
    </g>
    <g transform="matrix(1,0,0,1,331.141,113.393)">
        <path d="M0,-4.384C-0.76,-4.384 -2.12,-4.415 -3.6,-4.415C-4.079,-4.415 -4.319,-4.159 -4.439,-3.84C-5.239,-0.863 -5.919,1.952 -5.919,2.816C-5.919,4.32 -5.319,5.28 -3.56,5.983C-3.319,6.08 -3.16,6.271 -3.16,6.496C-3.16,6.784 -4,7.935 -4.479,8.416C-4.68,8.607 -4.999,8.735 -5.279,8.735C-5.439,8.735 -5.6,8.703 -5.72,8.672C-8.679,7.872 -10.078,5.76 -10.078,3.391C-10.078,0.736 -8.759,-3.904 -8.759,-4.064C-8.759,-4.287 -8.919,-4.447 -9.238,-4.447L-9.879,-4.447C-10.278,-4.447 -10.679,-4.672 -10.719,-4.991C-10.759,-5.216 -10.759,-5.535 -10.759,-5.823C-10.759,-6.112 -10.719,-6.623 -10.719,-6.623C-10.719,-6.976 -10.398,-7.264 -9.999,-7.295L-8.279,-7.392C-7.839,-7.423 -7.679,-7.68 -7.559,-7.967C-6.879,-10.047 -6.199,-11.807 -5.72,-12.703C-5.6,-12.927 -5.279,-13.119 -4.919,-13.119C-4.479,-13.119 -3,-12.736 -2.32,-12.511C-2.04,-12.415 -1.88,-12.191 -1.88,-11.967C-1.88,-11.839 -2,-11.519 -2,-11.519C-2.32,-10.687 -3.2,-8.192 -3.2,-7.936C-3.2,-7.68 -3,-7.488 -2.64,-7.488C-1.4,-7.488 -0.24,-7.488 0.479,-7.423C0.88,-7.392 1.119,-7.136 1.119,-6.751C1.119,-6.495 1,-5.375 0.88,-4.928C0.8,-4.608 0.399,-4.384 0,-4.384" style="fill:rgb(26,26,26);fill-rule:nonzero;"/>
    </g>
    <g transform="matrix(1,0,0,1,336.902,115.409)">
        <path d="M0,-2.655C0,-2.303 0.479,-2.303 0.88,-2.303C4.239,-2.303 5.639,-3.967 5.639,-5.247C5.639,-6.047 5.278,-6.783 4.199,-6.783C2.399,-6.783 0,-3.743 0,-2.655M3.52,-9.407C5.278,-9.407 8.238,-7.967 9.118,-6.783C9.558,-6.175 9.718,-5.439 9.718,-4.959C9.718,-2.911 7.398,0.033 1.999,0.033C1.239,0.033 0.56,-0.031 -0.04,-0.128C-0.04,-0.128 -0.36,-0.191 -0.44,-0.191C-0.681,-0.191 -0.8,-0 -0.8,0.257C-0.8,2.113 -0.08,3.584 2.079,3.584C3.52,3.584 4.879,3.008 6.278,2.433C6.278,2.433 6.438,2.368 6.559,2.368C6.799,2.368 6.919,2.464 7.078,2.689C7.278,3.008 7.918,4.065 7.918,4.288C7.918,4.609 7.719,4.832 7.479,4.992C5.999,5.888 4.359,6.752 2.479,6.752C0.8,6.752 -1.44,5.92 -3.04,4.737C-4,4.032 -4.88,2.529 -4.88,-0.095C-4.88,-4.415 -1.2,-9.407 3.52,-9.407" style="fill:rgb(26,26,26);fill-rule:nonzero;"/>
    </g>
    <g transform="matrix(1,0,0,1,366.26,111.442)">
        <path d="M0,0.48C0,0.896 -0.2,1.824 -0.32,2.24C-0.4,2.56 -0.8,2.751 -1.16,2.751C-1.28,2.751 -1.96,2.72 -2.399,2.72C-5.68,2.72 -8.519,2.816 -8.519,4.992C-8.519,6.624 -6.56,7.519 -4.399,7.519C-2.16,7.519 0.2,6.879 1.76,6.144C1.88,6.08 1.999,6.047 2.119,6.047C2.319,6.047 2.52,6.144 2.64,6.368C2.919,6.944 3.319,7.872 3.319,8.223C3.319,8.511 3.239,8.767 2.839,8.959C1.08,9.792 -0.96,10.431 -3.239,10.624C-3.8,10.655 -4.039,10.943 -4.119,11.263C-4.359,12.063 -4.64,13.151 -4.919,14.239C-4.999,14.527 -5.319,14.751 -5.68,14.751C-5.959,14.751 -7.119,14.559 -7.239,14.527C-7.599,14.431 -7.759,14.207 -7.759,13.951C-7.759,13.567 -7.119,11.071 -7.119,10.751C-7.119,10.527 -7.359,10.303 -7.679,10.175C-10.639,9.055 -12.558,7.423 -12.558,5.343C-12.558,2.72 -10.438,1.536 -8.039,0.736C-8.039,0.736 -7.759,0.64 -7.759,0.48C-7.759,0.352 -7.839,0.288 -7.959,0.192C-8.959,-0.704 -9.998,-1.632 -9.998,-2.72C-9.998,-6.112 -6.199,-10.335 -2.359,-10.335C-2.04,-10.335 -1.84,-10.431 -1.68,-10.879C-1.28,-11.999 -1.08,-13.087 -0.8,-13.823C-0.68,-14.079 -0.4,-14.271 0,-14.271C0.279,-14.271 1.68,-14.015 1.96,-13.919C2.239,-13.823 2.399,-13.631 2.399,-13.407C2.399,-13.151 1.399,-10.399 1.399,-10.015C1.399,-9.759 1.6,-9.567 1.92,-9.439C3.999,-8.639 5.959,-7.263 5.959,-5.887C5.959,-4.959 5.359,-3.392 4.839,-2.656C4.52,-2.208 4.319,-2.112 3.879,-2.112C3.6,-2.08 2.359,-2.08 1.68,-2.08C1.199,-2.08 0.96,-2.4 0.96,-2.592C0.96,-3.072 1.6,-4.192 1.6,-5.536C1.6,-6.751 0.56,-7.583 -1.16,-7.583C-3.72,-7.583 -5.799,-4.16 -5.799,-2.751C-5.799,-1.6 -5.6,-0.032 -0.6,-0.032C-0.24,0.001 0,0.192 0,0.48" style="fill:rgb(26,26,26);fill-rule:nonzero;"/>
    </g>
    <g transform="matrix(1,0,0,1,387.26,119.856)">
        <path d="M0,-18.142C0,-16.766 -1.04,-15.678 -2.84,-15.678C-4.959,-15.678 -5.799,-16.735 -5.799,-17.982C-5.799,-18.911 -4.999,-19.743 -4.439,-20.094C-4.199,-20.254 -3.6,-20.414 -3.199,-20.414C-1.6,-20.414 0,-19.614 0,-18.142M-6.079,2.272C-6.599,2.272 -8.158,1.888 -8.519,1.76C-8.918,1.632 -9.118,1.344 -9.118,1.056C-9.118,0.896 -9.078,0.48 -9.078,0.48C-8.839,-3.007 -7.159,-10.655 -6.039,-13.374C-5.919,-13.663 -5.519,-13.855 -5.159,-13.855C-4.879,-13.855 -3.079,-13.47 -2.64,-13.311C-2.279,-13.214 -2.119,-12.926 -2.119,-12.639C-2.119,-12.542 -2.199,-12.287 -2.199,-12.287C-3.399,-8.255 -4.799,-2.047 -5.359,1.76C-5.399,2.048 -5.719,2.272 -6.079,2.272" style="fill:rgb(26,26,26);fill-rule:nonzero;"/>
    </g>
    <g transform="matrix(1,0,0,1,398.459,122.128)">
        <path d="M0,-16.19C2.159,-16.19 4.439,-13.854 4.439,-12.254C4.439,-10.751 3.159,-4.735 1.72,-0.479C1.6,-0.223 1.279,0 0.92,0C0.439,0 -1.28,-0.447 -1.72,-0.639C-2.04,-0.767 -2.2,-1.023 -2.2,-1.279C-2.2,-1.439 -2.08,-1.823 -2.08,-1.823C-1.439,-3.807 0.2,-9.183 0.2,-11.646C0.2,-12.35 0.04,-12.798 -0.32,-12.798C-1.32,-12.798 -4.119,-11.55 -6.399,-9.567C-6.679,-9.311 -6.959,-8.863 -7.039,-8.543C-7.759,-5.727 -8.599,-2.175 -8.999,-0.511C-9.078,-0.223 -9.358,-0.032 -9.719,-0.032C-10.078,-0.032 -11.958,-0.479 -12.238,-0.576C-12.558,-0.704 -12.758,-0.96 -12.758,-1.311C-12.758,-1.407 -12.678,-1.759 -12.678,-1.759C-12.078,-4.351 -10.358,-12.863 -9.839,-15.614C-9.759,-15.902 -9.479,-16.094 -9.118,-16.094C-8.679,-16.094 -7.039,-15.711 -6.719,-15.614C-6.319,-15.486 -6.079,-15.102 -6.079,-14.782C-6.079,-14.367 -6.119,-13.758 -6.119,-13.119C-6.119,-12.926 -6.079,-12.831 -5.959,-12.831C-5.879,-12.831 -5.799,-12.894 -5.679,-12.991C-3.64,-14.782 -1.399,-16.19 0,-16.19" style="fill:rgb(26,26,26);fill-rule:nonzero;"/>
    </g>
    <g transform="matrix(1,0,0,1,416.899,122.128)">
        <path d="M0,-16.19C2.159,-16.19 4.439,-13.854 4.439,-12.254C4.439,-10.751 3.159,-4.735 1.72,-0.479C1.6,-0.223 1.279,0 0.92,0C0.439,0 -1.28,-0.447 -1.72,-0.639C-2.04,-0.767 -2.2,-1.023 -2.2,-1.279C-2.2,-1.439 -2.08,-1.823 -2.08,-1.823C-1.439,-3.807 0.2,-9.183 0.2,-11.646C0.2,-12.35 0.04,-12.798 -0.32,-12.798C-1.32,-12.798 -4.119,-11.55 -6.399,-9.567C-6.679,-9.311 -6.959,-8.863 -7.039,-8.543C-7.759,-5.727 -8.599,-2.175 -8.999,-0.511C-9.078,-0.223 -9.358,-0.032 -9.719,-0.032C-10.078,-0.032 -11.958,-0.479 -12.238,-0.576C-12.558,-0.704 -12.758,-0.96 -12.758,-1.311C-12.758,-1.407 -12.678,-1.759 -12.678,-1.759C-12.078,-4.351 -10.358,-12.863 -9.839,-15.614C-9.759,-15.902 -9.479,-16.094 -9.118,-16.094C-8.679,-16.094 -7.039,-15.711 -6.719,-15.614C-6.319,-15.486 -6.079,-15.102 -6.079,-14.782C-6.079,-14.367 -6.119,-13.758 -6.119,-13.119C-6.119,-12.926 -6.079,-12.831 -5.959,-12.831C-5.879,-12.831 -5.799,-12.894 -5.679,-12.991C-3.64,-14.782 -1.399,-16.19 0,-16.19" style="fill:rgb(26,26,26);fill-rule:nonzero;"/>
    </g>
    <g transform="matrix(1,0,0,1,434.858,116.049)">
        <path d="M0,-3.935C0,-5.791 -0.84,-7.103 -2.479,-7.103C-5.479,-7.103 -7.718,-3.007 -7.718,0.192C-7.718,1.92 -6.958,3.264 -5.198,3.264C-1.999,3.264 0,-0.831 0,-3.935M-4.079,6.112C-6.278,6.112 -8.998,4.992 -9.958,4.096C-11.237,2.912 -11.838,1.377 -11.838,-0.288C-11.838,-4.16 -8.918,-10.047 -3.399,-10.047C-1.239,-10.047 2.36,-8.383 3.6,-6.368C3.92,-5.855 4.2,-4.736 4.239,-3.711C4.239,-0.671 1.92,6.112 -4.079,6.112" style="fill:rgb(26,26,26);fill-rule:nonzero;"/>
    </g>
    <g transform="matrix(1,0,0,1,453.418,122)">
        <path d="M0,-15.966C0.439,-15.966 2.199,-15.07 2.68,-14.75C2.959,-14.59 3.159,-14.302 3.159,-14.014C3.159,-13.918 3.119,-13.758 3.119,-13.758C2.119,-10.494 -2.6,-2.495 -5.439,-0.223C-5.679,-0.031 -6.039,0.096 -6.399,0.096C-7.398,0.096 -9.919,-0.895 -10.559,-1.375C-10.838,-1.599 -11.118,-2.015 -11.158,-2.335C-11.438,-4.574 -11.599,-11.614 -11.718,-15.486C-11.718,-15.806 -11.398,-16.062 -10.998,-16.062C-10.158,-16.029 -8.759,-15.934 -7.919,-15.806C-7.519,-15.742 -7.239,-15.422 -7.239,-15.102C-7.438,-12.51 -7.519,-9.95 -7.519,-7.838C-7.519,-5.918 -7.438,-4.383 -7.438,-3.519C-7.438,-3.326 -7.358,-3.231 -7.239,-3.231C-7.159,-3.231 -7.079,-3.295 -6.999,-3.391C-5.399,-5.406 -1.68,-11.966 -0.6,-15.55C-0.521,-15.806 -0.28,-15.966 0,-15.966" style="fill:rgb(26,26,26);fill-rule:nonzero;"/>
    </g>
    <g transform="matrix(1,0,0,1,467.619,112.626)">
        <path d="M0,2.815C0.479,0.544 1.279,-2.529 1.279,-2.624C1.279,-2.913 1.04,-3.136 0.72,-3.232C-0.2,-3.52 -0.96,-3.712 -1.4,-3.712C-5.039,-3.712 -6.799,1.567 -6.799,4.415C-6.799,5.503 -6.52,6.335 -6.079,6.335C-4.76,6.335 -2.439,4.96 -0.64,3.647C-0.2,3.327 -0.08,3.135 0,2.815M-0.04,8.287L-0.12,6.591C-0.12,6.399 -0.2,6.303 -0.28,6.303C-0.36,6.303 -0.4,6.335 -0.521,6.463C-2.12,8.287 -3.96,9.535 -5.159,9.535C-8.039,9.535 -10.719,6.399 -10.719,3.903C-10.719,-1.216 -7.719,-6.72 -2.399,-6.72C-0.92,-6.72 2.479,-5.728 5.398,-4.128C5.679,-3.968 5.839,-3.712 5.839,-3.424C5.839,-3.296 5.759,-3.073 5.759,-3.073C4.359,1.12 3.64,6.463 3.56,9.023C3.52,9.279 3.239,9.502 2.919,9.502C2.52,9.502 1.08,9.183 0.68,9.055C0.24,8.926 -0.04,8.607 -0.04,8.287" style="fill:rgb(26,26,26);fill-rule:nonzero;"/>
    </g>
    <g transform="matrix(1,0,0,1,486.418,113.393)">
        <path d="M0,-4.384C-0.76,-4.384 -2.12,-4.415 -3.6,-4.415C-4.079,-4.415 -4.319,-4.159 -4.439,-3.84C-5.239,-0.863 -5.919,1.952 -5.919,2.816C-5.919,4.32 -5.319,5.28 -3.56,5.983C-3.319,6.08 -3.16,6.271 -3.16,6.496C-3.16,6.784 -4,7.935 -4.479,8.416C-4.68,8.607 -4.999,8.735 -5.279,8.735C-5.439,8.735 -5.6,8.703 -5.72,8.672C-8.679,7.872 -10.078,5.76 -10.078,3.391C-10.078,0.736 -8.759,-3.904 -8.759,-4.064C-8.759,-4.287 -8.919,-4.447 -9.238,-4.447L-9.879,-4.447C-10.278,-4.447 -10.679,-4.672 -10.719,-4.991C-10.759,-5.216 -10.759,-5.535 -10.759,-5.823C-10.759,-6.112 -10.719,-6.623 -10.719,-6.623C-10.719,-6.976 -10.398,-7.264 -9.999,-7.295L-8.279,-7.392C-7.839,-7.423 -7.679,-7.68 -7.559,-7.967C-6.879,-10.047 -6.199,-11.807 -5.72,-12.703C-5.6,-12.927 -5.279,-13.119 -4.919,-13.119C-4.479,-13.119 -3,-12.736 -2.32,-12.511C-2.04,-12.415 -1.88,-12.191 -1.88,-11.967C-1.88,-11.839 -2,-11.519 -2,-11.519C-2.32,-10.687 -3.2,-8.192 -3.2,-7.936C-3.2,-7.68 -3,-7.488 -2.64,-7.488C-1.4,-7.488 -0.24,-7.488 0.479,-7.423C0.88,-7.392 1.119,-7.136 1.119,-6.751C1.119,-6.495 1,-5.375 0.88,-4.928C0.8,-4.608 0.399,-4.384 0,-4.384" style="fill:rgb(26,26,26);fill-rule:nonzero;"/>
    </g>
    <g transform="matrix(1,0,0,1,492.179,115.409)">
        <path d="M0,-2.655C0,-2.303 0.479,-2.303 0.88,-2.303C4.239,-2.303 5.639,-3.967 5.639,-5.247C5.639,-6.047 5.278,-6.783 4.199,-6.783C2.399,-6.783 0,-3.743 0,-2.655M3.52,-9.407C5.278,-9.407 8.238,-7.967 9.118,-6.783C9.558,-6.175 9.718,-5.439 9.718,-4.959C9.718,-2.911 7.398,0.033 1.999,0.033C1.239,0.033 0.56,-0.031 -0.04,-0.128C-0.04,-0.128 -0.36,-0.191 -0.44,-0.191C-0.681,-0.191 -0.8,-0 -0.8,0.257C-0.8,2.113 -0.08,3.584 2.079,3.584C3.52,3.584 4.879,3.008 6.278,2.433C6.278,2.433 6.438,2.368 6.559,2.368C6.799,2.368 6.919,2.464 7.078,2.689C7.278,3.008 7.918,4.065 7.918,4.288C7.918,4.609 7.719,4.832 7.479,4.992C5.999,5.888 4.359,6.752 2.479,6.752C0.8,6.752 -1.44,5.92 -3.04,4.737C-4,4.032 -4.88,2.529 -4.88,-0.095C-4.88,-4.415 -1.2,-9.407 3.52,-9.407" style="fill:rgb(26,26,26);fill-rule:nonzero;"/>
    </g>
    <g transform="matrix(1,0,0,1,0,25.5769)">
        <path d="M0,-2.3C0,-3.15 0.851,-4.5 2.95,-4.5C4.301,-4.5 8.301,-3.851 8.301,-1.2C8.301,0.15 7.951,0.95 6.501,0.6C6.15,1.45 5.601,2.2 4.301,2.2C2.851,2.2 0,1.05 0,-2.3" style="fill:rgb(26,26,26);fill-rule:nonzero;"/>
    </g>
</svg>
