<?xml version="1.0" encoding="UTF-8" standalone="no"?>
<!DOCTYPE svg PUBLIC "-//W3C//DTD SVG 1.1//EN" "http://www.w3.org/Graphics/SVG/1.1/DTD/svg11.dtd">
<svg width="100%" height="100%" viewBox="0 0 337 359" version="1.1" xmlns="http://www.w3.org/2000/svg" xmlns:xlink="http://www.w3.org/1999/xlink" xml:space="preserve" xmlns:serif="http://www.serif.com/" style="fill-rule:evenodd;clip-rule:evenodd;stroke-linejoin:round;stroke-miterlimit:2;">
    <g transform="matrix(1,0,0,1,-181.997,-100.471)">
        <path d="M243.6,168L305.198,168L305.198,134.398L243.6,134.398C227.26,134.398 211.592,140.89 200.041,152.441C188.486,163.996 181.998,179.664 181.998,196L181.998,426.55C181.928,435.284 185.361,443.679 191.529,449.862C197.693,456.046 206.08,459.499 214.814,459.456C223.545,459.409 231.896,455.87 237.998,449.624L310.799,376.823L383.6,449.624C389.702,455.87 398.053,459.409 406.784,459.456C415.515,459.499 423.901,456.046 430.069,449.862C436.237,443.678 439.667,435.284 439.6,426.55L439.6,302.4L405.998,302.4L405.998,424.26L310.799,329.061L215.6,424.26L215.6,196C215.6,188.574 218.55,181.453 223.8,176.199C229.05,170.949 236.175,168 243.601,168L243.6,168Z" style="fill-rule:nonzero;"/>
    </g>
    <g transform="matrix(1,0,0,1,-181.997,-100.471)">
        <path d="M518.39,157.19C518.394,143.245 513.226,129.795 503.894,119.436C494.558,109.077 481.714,102.541 467.847,101.096C453.976,99.651 440.062,103.393 428.792,111.608C413.362,100.139 393.155,97.319 375.179,104.124C357.202,110.932 343.929,126.429 339.968,145.237C336.003,164.049 341.898,183.581 355.601,197.061L428.679,269.862L501.48,197.061C512.238,186.577 518.332,172.213 518.39,157.19L518.39,157.19ZM478.128,173.6L428.792,222.936L379.456,173.6C373.643,167.858 371.335,159.452 373.401,151.545C375.468,143.643 381.597,137.44 389.475,135.275C397.354,133.115 405.787,135.318 411.6,141.06L428.678,157.861L445.479,141.06C451.292,135.228 459.772,132.943 467.729,135.06C475.686,137.177 481.909,143.377 484.053,151.326C486.198,159.275 483.94,167.767 478.127,173.599L478.128,173.6Z" style="fill-rule:nonzero;"/>
    </g>
</svg>
